<svg width="48" height="41" viewBox="0 0 48 41" fill="none" xmlns="http://www.w3.org/2000/svg">
<path d="M43.0886 8.52529H38.019V3.45567C38.019 2.55931 37.6629 1.69966 37.0291 1.06583C36.3953 0.432007 35.5356 0.0759277 34.6393 0.0759277H14.3608C13.4644 0.0759277 12.6048 0.432007 11.9709 1.06583C11.3371 1.69966 10.981 2.55931 10.981 3.45567V8.52529H5.91142C4.56687 8.52529 3.27739 9.05941 2.32665 10.0102C1.37592 10.9609 0.841797 12.2504 0.841797 13.5949V37.2531C0.841797 38.1495 1.19788 39.0092 1.8317 39.643C2.46553 40.2768 3.32518 40.6329 4.22154 40.6329H44.7785C45.6749 40.6329 46.5345 40.2768 47.1683 39.643C47.8022 39.0092 48.1582 38.1495 48.1582 37.2531V13.5949C48.1582 12.2504 47.6241 10.9609 46.6734 10.0102C45.7227 9.05941 44.4332 8.52529 43.0886 8.52529ZM14.3608 3.45567H34.6393V8.52529H14.3608V3.45567ZM44.7785 37.2531H4.22154V22.0443H17.7405V30.4936H31.2595V22.0443H44.7785V37.2531ZM21.1203 22.0443H27.8798V27.1139H21.1203V22.0443ZM4.22154 18.6645V13.5949C4.22154 13.1467 4.39958 12.7169 4.7165 12.4C5.03341 12.0831 5.46323 11.905 5.91142 11.905H43.0886C43.5368 11.905 43.9666 12.0831 44.2836 12.4C44.6005 12.7169 44.7785 13.1467 44.7785 13.5949V18.6645H4.22154Z" fill="white"/>
</svg>
