<svg width="37" height="48" viewBox="0 0 37 48" fill="none" xmlns="http://www.w3.org/2000/svg">
<path d="M9.56472 33.9949C8.75365 33.1802 9.17645 33.4099 7.22019 32.8839C6.33259 32.6449 5.55232 32.1855 4.84672 31.6352L0.612184 42.0639C0.202451 43.0736 0.967784 44.1705 2.05232 44.1292L6.97005 43.9408L10.3525 47.5296C11.0991 48.3208 12.4095 48.0742 12.8193 47.0646L17.6773 35.1002C16.6655 35.6664 15.5427 35.9983 14.3817 35.9983C12.5617 35.9983 10.8518 35.2867 9.56472 33.9949ZM36.2282 42.0639L31.9937 31.6352C31.2881 32.1864 30.5078 32.6449 29.6202 32.8839C27.6537 33.4127 28.0849 33.1821 27.2757 33.9949C25.9886 35.2867 24.2778 35.9983 22.4578 35.9983C21.2967 35.9983 20.1739 35.6655 19.1622 35.1002L24.0202 47.0646C24.4299 48.0742 25.7413 48.3208 26.487 47.5296L29.8703 43.9408L34.7881 44.1292C35.8726 44.1705 36.6379 43.0727 36.2282 42.0639ZM25.0469 31.8733C26.473 30.4155 26.6363 30.5411 28.6673 29.9852C29.9637 29.6299 30.9773 28.5939 31.3245 27.2683C32.0226 24.6058 31.8415 24.9274 33.7465 22.9792C34.6957 22.0089 35.0662 20.5942 34.719 19.2686C34.0218 16.608 34.0209 16.9792 34.719 14.3158C35.0662 12.9902 34.6957 11.5755 33.7465 10.6052C31.8415 8.65706 32.0226 8.97769 31.3245 6.31613C30.9773 4.9905 29.9637 3.95456 28.6673 3.59925C26.0651 2.88581 26.3787 3.07238 24.4719 1.12331C23.5227 0.153002 22.1386 -0.226685 20.8422 0.128627C18.241 0.841127 18.6041 0.842064 15.9982 0.128627C14.7018 -0.226685 13.3177 0.152065 12.3685 1.12331C10.4635 3.07144 10.7771 2.88581 8.17405 3.59925C6.87765 3.95456 5.86405 4.9905 5.51685 6.31613C4.81965 8.97769 4.99978 8.65706 3.09485 10.6052C2.14565 11.5755 1.77418 12.9902 2.12232 14.3158C2.81952 16.9746 2.82045 16.6033 2.12232 19.2677C1.77512 20.5933 2.14565 22.008 3.09485 22.9792C4.99978 24.9274 4.81872 24.6058 5.51685 27.2683C5.86405 28.5939 6.87765 29.6299 8.17405 29.9852C10.2629 30.5571 10.4187 30.4671 11.7935 31.8733C13.0283 33.1361 14.9519 33.3621 16.4359 32.4189C17.0293 32.0405 17.7177 31.8396 18.4207 31.8396C19.1236 31.8396 19.812 32.0405 20.4054 32.4189C21.8885 33.3621 23.8121 33.1361 25.0469 31.8733ZM9.61512 16.4946C9.61512 11.523 13.5575 7.49269 18.4202 7.49269C23.2829 7.49269 27.2253 11.523 27.2253 16.4946C27.2253 21.4661 23.2829 25.4964 18.4202 25.4964C13.5575 25.4964 9.61512 21.4661 9.61512 16.4946Z" fill="white"/>
</svg>
