<svg width="48" height="27" viewBox="0 0 48 27" fill="none" xmlns="http://www.w3.org/2000/svg">
<path d="M43.6506 12.2822C43.0751 12.2864 42.505 12.3962 41.9678 12.6064L36.2275 7.82167C36.3687 7.30005 36.4692 6.75894 36.4692 6.18858C36.4692 2.81028 33.8026 0.0949707 30.4848 0.0949707C27.167 0.0949707 24.5003 2.81028 24.5003 6.18858C24.5003 7.15381 24.7397 8.05322 25.1275 8.86246L18.164 17.2424C17.8852 17.1893 17.6025 17.1607 17.319 17.1571C16.8905 17.1571 16.4859 17.2302 16.0934 17.3374L9.9581 11.0903C10.0658 10.693 10.1376 10.281 10.1376 9.84475C10.1376 7.14406 8.00238 4.96986 5.35006 4.96986C2.69775 4.96986 0.5625 7.14406 0.5625 9.84475C0.5625 12.5454 2.69775 14.7196 5.35006 14.7196C5.77855 14.7196 6.1831 14.6465 6.57568 14.5393L12.7109 20.7864C12.5959 21.1914 12.5355 21.6104 12.5314 22.032C12.5314 24.7327 14.6667 26.9069 17.319 26.9069C19.9713 26.9069 22.1065 24.7327 22.1065 22.032C22.1065 21.4543 21.9916 20.9107 21.8121 20.3964L28.7852 12.0068C29.3286 12.1676 29.8911 12.2822 30.4848 12.2822C31.4295 12.2769 32.3593 12.0421 33.1969 11.5973L38.9396 16.382C38.8946 16.638 38.869 16.8971 38.863 17.1571C38.863 19.8578 40.9983 22.032 43.6506 22.032C46.3029 22.032 48.4381 19.8578 48.4381 17.1571C48.4381 14.4564 46.3029 12.2822 43.6506 12.2822Z" fill="white"/>
</svg>
